<?xml version="1.0" encoding="UTF-8"?><svg xmlns="http://www.w3.org/2000/svg" xmlns:xlink="http://www.w3.org/1999/xlink" fill-opacity="1" color-rendering="auto" color-interpolation="auto" text-rendering="auto" stroke="black" stroke-linecap="square" width="728" stroke-miterlimit="10" shape-rendering="auto" stroke-opacity="1" fill="black" stroke-dasharray="none" font-weight="normal" stroke-width="1" height="421" font-family="'Dialog'" font-style="normal" stroke-linejoin="miter" font-size="12px" stroke-dashoffset="0" image-rendering="auto">
  <!--Generated by ySVG 2.5-->
  <defs id="genericDefs"/>
  <g>
    <defs id="defs1">
      <clipPath clipPathUnits="userSpaceOnUse" id="clipPath1">
        <path d="M0 0 L728 0 L728 421 L0 421 L0 0 Z"/>
      </clipPath>
      <clipPath clipPathUnits="userSpaceOnUse" id="clipPath2">
        <path d="M-216 17 L512 17 L512 438 L-216 438 L-216 17 Z"/>
      </clipPath>
      <clipPath clipPathUnits="userSpaceOnUse" id="clipPath3">
        <path d="M-212 21 L516 21 L516 442 L-212 442 L-212 21 Z"/>
      </clipPath>
    </defs>
    <g fill="rgb(210,210,210)" text-rendering="geometricPrecision" shape-rendering="geometricPrecision" transform="matrix(1,0,0,1,212,-21) translate(4,4)" stroke="rgb(210,210,210)">
      <rect x="-196.5037" width="692.7277" height="385.711" y="36.7813" clip-path="url(#clipPath2)" stroke="none"/>
    </g>
    <g fill="white" text-rendering="geometricPrecision" shape-rendering="geometricPrecision" transform="matrix(1,0,0,1,212,-21)" stroke="white">
      <rect x="-196.5037" width="692.7277" height="385.711" y="36.7813" clip-path="url(#clipPath3)" stroke="none"/>
      <rect x="-196.5037" y="36.7813" clip-path="url(#clipPath3)" fill="rgb(255,255,153)" width="692.7277" height="25.1992" stroke="none"/>
      <rect x="-196.5037" y="36.7813" clip-path="url(#clipPath3)" fill="none" width="692.7277" height="25.1992" stroke="black" stroke-miterlimit="1.6"/>
    </g>
    <g font-size="18px" stroke-linecap="butt" transform="matrix(1,0,0,1,212,-21)" text-rendering="geometricPrecision" font-family="sans-serif" shape-rendering="geometricPrecision" font-weight="bold" stroke-miterlimit="1.45">
      <text x="274.6205" xml:space="preserve" y="56.1836" clip-path="url(#clipPath3)" stroke="none">WKT Ontology (WKT-O)</text>
      <rect fill="none" x="-196.5037" width="692.7277" height="385.711" y="36.7813" clip-path="url(#clipPath3)"/>
    </g>
    <g fill="rgb(210,210,210)" text-rendering="geometricPrecision" shape-rendering="geometricPrecision" transform="matrix(1,0,0,1,212,-21) translate(4,4)" stroke="rgb(210,210,210)">
      <rect x="-155.5037" width="622.7277" height="315.5117" y="81.9805" clip-path="url(#clipPath2)" stroke="none"/>
    </g>
    <g fill="rgb(222,220,196)" text-rendering="geometricPrecision" shape-rendering="geometricPrecision" transform="matrix(1,0,0,1,212,-21)" stroke="rgb(222,220,196)">
      <rect x="-155.5037" width="622.7277" height="315.5117" y="81.9805" clip-path="url(#clipPath3)" stroke="none"/>
      <rect x="-155.5037" y="81.9805" clip-path="url(#clipPath3)" fill="rgb(183,182,158)" width="622.7277" height="18.1328" stroke="none"/>
    </g>
    <g stroke-linecap="butt" transform="matrix(1,0,0,1,212,-21)" text-rendering="geometricPrecision" font-family="sans-serif" shape-rendering="geometricPrecision" font-style="italic" font-weight="bold" stroke-miterlimit="1.45">
      <text x="397.4721" xml:space="preserve" y="95.582" clip-path="url(#clipPath3)" stroke="none">WKTObject</text>
      <rect fill="none" x="-155.5037" width="622.7277" height="315.5117" y="81.9805" clip-path="url(#clipPath3)"/>
    </g>
    <g fill="rgb(210,210,210)" text-rendering="geometricPrecision" shape-rendering="geometricPrecision" transform="matrix(1,0,0,1,212,-21) translate(4,4)" stroke="rgb(210,210,210)">
      <rect x="-88.5037" width="515.7277" height="106.3789" y="258.1133" clip-path="url(#clipPath2)" stroke="none"/>
    </g>
    <g fill="rgb(202,200,176)" text-rendering="geometricPrecision" shape-rendering="geometricPrecision" transform="matrix(1,0,0,1,212,-21)" stroke="rgb(202,200,176)">
      <rect x="-88.5037" width="515.7277" height="106.3789" y="258.1133" clip-path="url(#clipPath3)" stroke="none"/>
      <rect x="-88.5037" y="258.1133" clip-path="url(#clipPath3)" fill="rgb(183,182,158)" width="515.7277" height="18.1328" stroke="none"/>
    </g>
    <g stroke-linecap="butt" transform="matrix(1,0,0,1,212,-21)" text-rendering="geometricPrecision" font-family="sans-serif" shape-rendering="geometricPrecision" font-style="italic" font-weight="bold" stroke-miterlimit="1.45">
      <text x="380.1479" xml:space="preserve" y="271.7149" clip-path="url(#clipPath3)" stroke="none">WKT3D</text>
      <rect fill="none" x="-88.5037" width="515.7277" height="106.3789" y="258.1133" clip-path="url(#clipPath3)"/>
    </g>
    <g fill="rgb(204,255,255)" text-rendering="geometricPrecision" shape-rendering="geometricPrecision" transform="matrix(1,0,0,1,212,-21)" stroke="rgb(204,255,255)">
      <rect x="-67.6695" y="291.2461" clip-path="url(#clipPath3)" width="99.6475" rx="4" ry="4" height="24" stroke="none"/>
    </g>
    <g text-rendering="geometricPrecision" stroke-miterlimit="1.45" shape-rendering="geometricPrecision" font-family="sans-serif" transform="matrix(1,0,0,1,212,-21)" stroke-linecap="butt">
      <text x="-36.1768" xml:space="preserve" y="307.7813" clip-path="url(#clipPath3)" stroke="none">PointZ</text>
      <rect x="-67.6695" y="291.2461" clip-path="url(#clipPath3)" fill="none" width="99.6475" rx="4" ry="4" height="24"/>
    </g>
    <g fill="rgb(204,255,255)" text-rendering="geometricPrecision" shape-rendering="geometricPrecision" transform="matrix(1,0,0,1,212,-21)" stroke="rgb(204,255,255)">
      <rect x="-67.6695" y="325.4922" clip-path="url(#clipPath3)" width="99.6475" rx="4" ry="4" height="24" stroke="none"/>
    </g>
    <g text-rendering="geometricPrecision" stroke-miterlimit="1.45" shape-rendering="geometricPrecision" font-family="sans-serif" transform="matrix(1,0,0,1,212,-21)" stroke-linecap="butt">
      <text x="-50.7812" xml:space="preserve" y="342.0274" clip-path="url(#clipPath3)" stroke="none">MultiPointZ</text>
      <rect x="-67.6695" y="325.4922" clip-path="url(#clipPath3)" fill="none" width="99.6475" rx="4" ry="4" height="24"/>
    </g>
    <g fill="rgb(204,255,255)" text-rendering="geometricPrecision" shape-rendering="geometricPrecision" transform="matrix(1,0,0,1,212,-21)" stroke="rgb(204,255,255)">
      <rect x="44.3657" y="291.2461" clip-path="url(#clipPath3)" width="99.6475" rx="4" ry="4" height="24" stroke="none"/>
    </g>
    <g text-rendering="geometricPrecision" stroke-miterlimit="1.45" shape-rendering="geometricPrecision" font-family="sans-serif" transform="matrix(1,0,0,1,212,-21)" stroke-linecap="butt">
      <text x="61.4326" xml:space="preserve" y="307.7813" clip-path="url(#clipPath3)" stroke="none">LineStringZ</text>
      <rect x="44.3657" y="291.2461" clip-path="url(#clipPath3)" fill="none" width="99.6475" rx="4" ry="4" height="24"/>
    </g>
    <g fill="rgb(204,255,255)" text-rendering="geometricPrecision" shape-rendering="geometricPrecision" transform="matrix(1,0,0,1,212,-21)" stroke="rgb(204,255,255)">
      <rect x="44.3657" y="325.4922" clip-path="url(#clipPath3)" width="99.6475" rx="4" ry="4" height="24" stroke="none"/>
    </g>
    <g text-rendering="geometricPrecision" stroke-miterlimit="1.45" shape-rendering="geometricPrecision" font-family="sans-serif" transform="matrix(1,0,0,1,212,-21)" stroke-linecap="butt">
      <text x="46.8281" xml:space="preserve" y="342.0274" clip-path="url(#clipPath3)" stroke="none">MultiLineStringZ</text>
      <rect x="44.3657" y="325.4922" clip-path="url(#clipPath3)" fill="none" width="99.6475" rx="4" ry="4" height="24"/>
    </g>
    <g fill="rgb(204,255,255)" text-rendering="geometricPrecision" shape-rendering="geometricPrecision" transform="matrix(1,0,0,1,212,-21)" stroke="rgb(204,255,255)">
      <rect x="156.4008" y="291.2461" clip-path="url(#clipPath3)" width="99.6475" rx="4" ry="4" height="24" stroke="none"/>
    </g>
    <g text-rendering="geometricPrecision" stroke-miterlimit="1.45" shape-rendering="geometricPrecision" font-family="sans-serif" transform="matrix(1,0,0,1,212,-21)" stroke-linecap="butt">
      <text x="179.5761" xml:space="preserve" y="307.7813" clip-path="url(#clipPath3)" stroke="none">PolygonZ</text>
      <rect x="156.4008" y="291.2461" clip-path="url(#clipPath3)" fill="none" width="99.6475" rx="4" ry="4" height="24"/>
    </g>
    <g fill="rgb(204,255,255)" text-rendering="geometricPrecision" shape-rendering="geometricPrecision" transform="matrix(1,0,0,1,212,-21)" stroke="rgb(204,255,255)">
      <rect x="156.4008" y="325.4922" clip-path="url(#clipPath3)" width="99.6475" rx="4" ry="4" height="24" stroke="none"/>
    </g>
    <g text-rendering="geometricPrecision" stroke-miterlimit="1.45" shape-rendering="geometricPrecision" font-family="sans-serif" transform="matrix(1,0,0,1,212,-21)" stroke-linecap="butt">
      <text x="164.9716" xml:space="preserve" y="342.0274" clip-path="url(#clipPath3)" stroke="none">MultiPolygonZ</text>
      <rect x="156.4008" y="325.4922" clip-path="url(#clipPath3)" fill="none" width="99.6475" rx="4" ry="4" height="24"/>
    </g>
    <g fill="rgb(204,255,255)" text-rendering="geometricPrecision" shape-rendering="geometricPrecision" transform="matrix(1,0,0,1,212,-21)" stroke="rgb(204,255,255)">
      <rect x="268.4359" y="291.2461" clip-path="url(#clipPath3)" width="130" rx="4" ry="4" height="24" stroke="none"/>
    </g>
    <g text-rendering="geometricPrecision" stroke-miterlimit="1.45" shape-rendering="geometricPrecision" font-family="sans-serif" transform="matrix(1,0,0,1,212,-21)" stroke-linecap="butt">
      <text x="272.557" xml:space="preserve" y="307.7813" clip-path="url(#clipPath3)" stroke="none">GeometryCollectionZ</text>
      <rect x="268.4359" y="291.2461" clip-path="url(#clipPath3)" fill="none" width="130" rx="4" ry="4" height="24"/>
    </g>
    <g fill="rgb(210,210,210)" text-rendering="geometricPrecision" shape-rendering="geometricPrecision" transform="matrix(1,0,0,1,212,-21) translate(4,4)" stroke="rgb(210,210,210)">
      <rect x="-88.5037" width="515.7277" height="103.327" y="124.7863" clip-path="url(#clipPath2)" stroke="none"/>
    </g>
    <g fill="rgb(202,200,176)" text-rendering="geometricPrecision" shape-rendering="geometricPrecision" transform="matrix(1,0,0,1,212,-21)" stroke="rgb(202,200,176)">
      <rect x="-88.5037" width="515.7277" height="103.327" y="124.7863" clip-path="url(#clipPath3)" stroke="none"/>
      <rect x="-88.5037" y="124.7863" clip-path="url(#clipPath3)" fill="rgb(183,182,158)" width="515.7277" height="18.1328" stroke="none"/>
    </g>
    <g stroke-linecap="butt" transform="matrix(1,0,0,1,212,-21)" text-rendering="geometricPrecision" font-family="sans-serif" shape-rendering="geometricPrecision" font-style="italic" font-weight="bold" stroke-miterlimit="1.45">
      <text x="380.1479" xml:space="preserve" y="138.3879" clip-path="url(#clipPath3)" stroke="none">WKT2D</text>
      <rect fill="none" x="-88.5037" width="515.7277" height="103.327" y="124.7863" clip-path="url(#clipPath3)"/>
    </g>
    <g fill="rgb(204,255,255)" text-rendering="geometricPrecision" shape-rendering="geometricPrecision" transform="matrix(1,0,0,1,212,-21)" stroke="rgb(204,255,255)">
      <rect x="268.4359" y="157.9192" clip-path="url(#clipPath3)" width="130" rx="4" ry="4" height="24" stroke="none"/>
    </g>
    <g text-rendering="geometricPrecision" stroke-miterlimit="1.45" shape-rendering="geometricPrecision" font-family="sans-serif" transform="matrix(1,0,0,1,212,-21)" stroke-linecap="butt">
      <text x="276.184" xml:space="preserve" y="174.4543" clip-path="url(#clipPath3)" stroke="none">GeometryCollection</text>
      <rect x="268.4359" y="157.9192" clip-path="url(#clipPath3)" fill="none" width="130" rx="4" ry="4" height="24"/>
    </g>
    <g fill="rgb(204,255,255)" text-rendering="geometricPrecision" shape-rendering="geometricPrecision" transform="matrix(1,0,0,1,212,-21)" stroke="rgb(204,255,255)">
      <rect x="44.3657" y="157.9192" clip-path="url(#clipPath3)" width="99.6475" rx="4" ry="4" height="24" stroke="none"/>
    </g>
    <g text-rendering="geometricPrecision" stroke-miterlimit="1.45" shape-rendering="geometricPrecision" font-family="sans-serif" transform="matrix(1,0,0,1,212,-21)" stroke-linecap="butt">
      <text x="65.0596" xml:space="preserve" y="174.4543" clip-path="url(#clipPath3)" stroke="none">LineString</text>
      <rect x="44.3657" y="157.9192" clip-path="url(#clipPath3)" fill="none" width="99.6475" rx="4" ry="4" height="24"/>
    </g>
    <g fill="rgb(204,255,255)" text-rendering="geometricPrecision" shape-rendering="geometricPrecision" transform="matrix(1,0,0,1,212,-21)" stroke="rgb(204,255,255)">
      <rect x="44.3657" y="189.1133" clip-path="url(#clipPath3)" width="99.6475" rx="4" ry="4" height="24" stroke="none"/>
    </g>
    <g text-rendering="geometricPrecision" stroke-miterlimit="1.45" shape-rendering="geometricPrecision" font-family="sans-serif" transform="matrix(1,0,0,1,212,-21)" stroke-linecap="butt">
      <text x="50.4551" xml:space="preserve" y="205.6485" clip-path="url(#clipPath3)" stroke="none">MultiLineString</text>
      <rect x="44.3657" y="189.1133" clip-path="url(#clipPath3)" fill="none" width="99.6475" rx="4" ry="4" height="24"/>
    </g>
    <g fill="rgb(204,255,255)" text-rendering="geometricPrecision" shape-rendering="geometricPrecision" transform="matrix(1,0,0,1,212,-21)" stroke="rgb(204,255,255)">
      <rect x="-67.6695" y="189.1133" clip-path="url(#clipPath3)" width="99.6475" rx="4" ry="4" height="24" stroke="none"/>
    </g>
    <g text-rendering="geometricPrecision" stroke-miterlimit="1.45" shape-rendering="geometricPrecision" font-family="sans-serif" transform="matrix(1,0,0,1,212,-21)" stroke-linecap="butt">
      <text x="-47.1543" xml:space="preserve" y="205.6485" clip-path="url(#clipPath3)" stroke="none">MultiPoint</text>
      <rect x="-67.6695" y="189.1133" clip-path="url(#clipPath3)" fill="none" width="99.6475" rx="4" ry="4" height="24"/>
    </g>
    <g fill="rgb(204,255,255)" text-rendering="geometricPrecision" shape-rendering="geometricPrecision" transform="matrix(1,0,0,1,212,-21)" stroke="rgb(204,255,255)">
      <rect x="156.4008" y="157.9192" clip-path="url(#clipPath3)" width="99.6475" rx="4" ry="4" height="24" stroke="none"/>
    </g>
    <g text-rendering="geometricPrecision" stroke-miterlimit="1.45" shape-rendering="geometricPrecision" font-family="sans-serif" transform="matrix(1,0,0,1,212,-21)" stroke-linecap="butt">
      <text x="183.2031" xml:space="preserve" y="174.4543" clip-path="url(#clipPath3)" stroke="none">Polygon</text>
      <rect x="156.4008" y="157.9192" clip-path="url(#clipPath3)" fill="none" width="99.6475" rx="4" ry="4" height="24"/>
    </g>
    <g fill="rgb(204,255,255)" text-rendering="geometricPrecision" shape-rendering="geometricPrecision" transform="matrix(1,0,0,1,212,-21)" stroke="rgb(204,255,255)">
      <rect x="156.4008" y="189.1133" clip-path="url(#clipPath3)" width="99.6475" rx="4" ry="4" height="24" stroke="none"/>
    </g>
    <g text-rendering="geometricPrecision" stroke-miterlimit="1.45" shape-rendering="geometricPrecision" font-family="sans-serif" transform="matrix(1,0,0,1,212,-21)" stroke-linecap="butt">
      <text x="168.5986" xml:space="preserve" y="205.6485" clip-path="url(#clipPath3)" stroke="none">MultiPolygon</text>
      <rect x="156.4008" y="189.1133" clip-path="url(#clipPath3)" fill="none" width="99.6475" rx="4" ry="4" height="24"/>
    </g>
    <g fill="rgb(204,255,255)" text-rendering="geometricPrecision" shape-rendering="geometricPrecision" transform="matrix(1,0,0,1,212,-21)" stroke="rgb(204,255,255)">
      <rect x="-67.6695" y="157.9192" clip-path="url(#clipPath3)" width="99.6475" rx="4" ry="4" height="24" stroke="none"/>
    </g>
    <g text-rendering="geometricPrecision" stroke-miterlimit="1.45" shape-rendering="geometricPrecision" font-family="sans-serif" transform="matrix(1,0,0,1,212,-21)" stroke-linecap="butt">
      <text x="-32.5498" xml:space="preserve" y="174.4543" clip-path="url(#clipPath3)" stroke="none">Point</text>
      <rect x="-67.6695" y="157.9192" clip-path="url(#clipPath3)" fill="none" width="99.6475" rx="4" ry="4" height="24"/>
    </g>
  </g>
</svg>
